<svg viewBox="0 0 750 750" xmlns="http://www.w3.org/2000/svg">
<defs>
  <clipPath id="a018fd2de3">
    <rect x="0" y="0" width="294" height="750"/>
  </clipPath>
</defs>

<g transform="matrix(1, 0, 0, 1, 228, 0)">
  <g clip-path="url(#a018fd2de3)">
    <g fill="#3a5a40">
      <g transform="translate(11.961704, 605.091366)">
        <path d="M 132.90625 3.3125 C 90.507812 4.050781 59.363281 -6.566406 39.46875 -28.546875 C 19.570312 -50.535156 9.222656 -84.414062 8.421875 -130.1875 L 7.53125 -180.828125 L 106.578125 -182.5625 L 107.46875 -131.921875 C 107.71875 -117.285156 109.789062 -105.960938 113.6875 -97.953125 C 117.582031 -89.953125 125.160156 -86.050781 136.421875 -86.25 C 144.296875 -86.382812 149.96875 -89.296875 153.4375 -94.984375 C 156.90625 -100.679688 158.945312 -107.382812 159.5625 -115.09375 C 160.175781 -122.800781 160.351562 -133.972656 160.09375 -148.609375 L 159.890625 -160.40625 C 159.160156 -202.0625 145.101562 -222.648438 117.71875 -222.171875 C 112.84375 -222.085938 109.660156 -221.84375 108.171875 -221.4375 L 106.65625 -308.109375 C 123.914062 -308.410156 136.789062 -312.476562 145.28125 -320.3125 C 153.769531 -328.15625 157.867188 -340.519531 157.578125 -357.40625 C 157.097656 -384.789062 148.984375 -398.34375 133.234375 -398.0625 C 123.472656 -397.894531 117.226562 -395.347656 114.5 -390.421875 C 111.78125 -385.503906 110.015625 -379.285156 109.203125 -371.765625 C 108.398438 -364.242188 107.835938 -358.789062 107.515625 -355.40625 L 107.78125 -340.78125 L 7.609375 -339.03125 L 6.75 -355.90625 C 6.351562 -400.175781 16.285156 -432.898438 36.546875 -454.078125 C 56.816406 -475.265625 88.34375 -486.234375 131.125 -486.984375 C 213.28125 -488.410156 255.109375 -446.171875 256.609375 -360.265625 C 257.046875 -335.117188 254.019531 -315.078125 247.53125 -300.140625 C 241.039062 -285.203125 229.59375 -274.585938 213.1875 -268.296875 C 226.8125 -261.785156 236.988281 -253.613281 243.71875 -243.78125 C 250.457031 -233.957031 254.984375 -221.929688 257.296875 -207.703125 C 259.609375 -193.484375 260.972656 -174.375 261.390625 -150.375 C 262.265875 -100.46875 252.507812 -62.578125 232.125 -36.703125 C 211.75 -10.828125 178.675781 2.507812 132.90625 3.3125 Z"/>
      </g>
    </g>
  </g>
</g>
</svg>
